<svg width="40" height="40" viewBox="0 0 40 40" fill="none" xmlns="http://www.w3.org/2000/svg">
<path d="M34.375 15.625C35.0654 15.625 35.625 15.0654 35.625 14.375C35.625 13.6846 35.0654 13.125 34.375 13.125C33.6846 13.125 33.125 13.6846 33.125 14.375C33.125 15.0654 33.6846 15.625 34.375 15.625Z" fill="white"/>
<path d="M28.75 11.4888L28.5675 11.3975C25.9206 10.0744 22.9581 9.375 20 9.375C17.0419 9.375 14.0794 10.0744 11.4325 11.3975L11.25 11.4894V9.13688L11.9919 8.76625C14.4656 7.52875 17.235 6.875 20 6.875C22.765 6.875 25.5344 7.52875 28.0087 8.76563L28.75 9.13625V11.4888ZM8.75 17.5C8.75 16.6863 9.27437 15.9988 10 15.74V19.2594C9.63548 19.1311 9.31962 18.8931 9.0958 18.5781C8.87198 18.263 8.75119 17.8864 8.75 17.5ZM14.0625 29.375L19.5 36.625C19.5581 36.7029 19.6335 36.7661 19.7203 36.8096C19.8071 36.8532 19.9029 36.8758 20 36.8758C20.0971 36.8758 20.1929 36.8532 20.2797 36.8096C20.3665 36.7661 20.4419 36.7029 20.5 36.625L25.9375 29.375H27.5619L21.5462 38.125H18.4537L12.4381 29.375H14.0625ZM5.625 32.5C5.625 30.7769 7.02688 29.375 8.75 29.375H10.9213L16.9369 38.125H5.625V32.5ZM34.375 32.5V38.125H23.0631L29.0788 29.375H31.25C32.9731 29.375 34.375 30.7769 34.375 32.5ZM24.375 29.375L20 35.2081L15.625 29.375H24.375ZM28.75 19.375C28.75 24.2 24.825 28.125 20 28.125C15.175 28.125 11.25 24.2 11.25 19.375V12.8863L11.9919 12.5156C14.4656 11.2788 17.235 10.625 20 10.625C22.765 10.625 25.5344 11.2788 28.0087 12.5156L28.75 12.8863V19.375ZM31.25 17.5C31.2488 17.8865 31.128 18.2631 30.9042 18.5783C30.6803 18.8934 30.3645 19.1315 30 19.26V15.7406C30.7256 15.9988 31.25 16.6863 31.25 17.5ZM30 9.07688V8.75C30.0001 8.63386 29.9677 8.51999 29.9067 8.42119C29.8456 8.32238 29.7583 8.24254 29.6544 8.19063L28.5675 7.6475C25.9206 6.32438 22.9581 5.625 20 5.625C17.0419 5.625 14.0794 6.32438 11.4325 7.6475L10.3456 8.19063C10.2417 8.24254 10.1544 8.32238 10.0933 8.42119C10.0323 8.51999 9.99995 8.63386 10 8.75V9.07688L6.0575 7.5L20 1.92313L33.9425 7.5L30 9.07688ZM33.75 8.92313V12.5H35V8.42313L33.75 8.92313Z" fill="white"/>
</svg>
