<svg width="40" height="40" viewBox="0 0 40 40" fill="none" xmlns="http://www.w3.org/2000/svg">
<path d="M6.87498 28.125H9.37498V29.375H6.87498V28.125ZM6.4224 35.9081C6.40675 36.1112 6.43324 36.3154 6.50022 36.5078C6.56721 36.7002 6.67323 36.8766 6.81164 37.0261C6.95005 37.1756 7.11786 37.2948 7.30455 37.3764C7.49123 37.4579 7.69275 37.5 7.89646 37.5C7.90888 37.5 7.92084 37.4984 7.93318 37.4981C7.95654 37.4957 7.98001 37.4945 8.00349 37.4946C8.37578 37.4674 8.72401 37.3004 8.97837 37.0272C9.23272 36.754 9.3744 36.3948 9.37498 36.0215V30.625H6.82873L6.4224 35.9081ZM22.5 35V26.6177L21.1737 29.0493C21.1199 29.1479 21.0406 29.2301 20.944 29.2874C20.8475 29.3447 20.7373 29.375 20.625 29.375C20.5127 29.375 20.4025 29.3447 20.306 29.2874C20.2094 29.2301 20.1301 29.1479 20.0763 29.0493L16.504 22.5H14.4125C13.995 22.5017 13.582 22.586 13.1973 22.7481C12.8125 22.9101 12.4637 23.1468 12.1708 23.4443C11.8856 23.7326 11.6618 24.0758 11.5131 24.4531L10.625 26.6646V34.2578L13.5512 28.8171C13.7402 28.2711 14.0144 27.7584 14.3637 27.2981C14.3664 27.2937 14.3686 27.2888 14.3715 27.2845L14.3826 27.265L14.384 27.2658C14.4035 27.2381 14.4251 27.212 14.4487 27.1877C14.6802 26.898 14.9403 26.6325 15.2251 26.3952L16.0254 27.3555C15.1593 28.0789 14.6156 29.1163 14.5134 30.2402C14.4112 31.364 14.759 32.4825 15.4804 33.3502C15.5739 33.4625 15.625 33.604 15.625 33.75V37.5H25.625V36.1374L23.0024 35.6129C22.8607 35.5846 22.7332 35.508 22.6416 35.3963C22.55 35.2845 22.5 35.1445 22.5 35Z" fill="white"/>
<path d="M14.3868 27.2674C14.3995 27.251 14.4119 27.2345 14.4247 27.2181C14.4107 27.2336 14.3974 27.2497 14.3849 27.2664L14.3868 27.2674ZM23.3928 22.3704C23.1274 22.2528 22.9018 22.0607 22.7433 21.8175C22.5849 21.5742 22.5003 21.2903 22.4999 21V19.0873C21.2794 19.4709 19.9705 19.4709 18.7499 19.0873V21C18.7496 21.2903 18.665 21.5742 18.5065 21.8175C18.3481 22.0607 18.1225 22.2528 17.8571 22.3704L18.6093 23.75H22.6406L23.3928 22.3704Z" fill="white"/>
<path d="M12.2239 21.8405C12.8894 21.456 13.6439 21.2524 14.4125 21.25H17.25C17.316 21.2491 17.3791 21.2225 17.4258 21.1758C17.4725 21.1291 17.4991 21.066 17.5 21V18.5341C16.5505 17.9857 15.762 17.1973 15.2135 16.2478C14.665 15.2984 14.3758 14.2215 14.375 13.125V10C14.375 9.89711 14.4004 9.79582 14.4489 9.70511C14.4975 9.6144 14.5677 9.53707 14.6533 9.48C15.7911 8.72072 16.7115 7.67813 17.3237 6.45492L17.5659 5.97055C17.6081 5.88625 17.6688 5.81257 17.7434 5.75504C17.818 5.6975 17.9047 5.65759 17.997 5.63829C18.0892 5.619 18.1847 5.62081 18.2761 5.64361C18.3676 5.6664 18.4527 5.70958 18.5251 5.76992L18.88 6.06578C21.0102 7.84166 23.5927 8.98967 26.3383 9.38133C26.4872 9.40258 26.6235 9.47685 26.7221 9.5905C26.8207 9.70414 26.875 9.84954 26.875 10V13.125C26.8742 14.2215 26.585 15.2984 26.0365 16.2478C25.488 17.1973 24.6995 17.9857 23.75 18.5341V21C23.7509 21.066 23.7775 21.1291 23.8242 21.1758C23.8709 21.2225 23.934 21.2491 24 21.25H26.8312C27.6026 21.2509 28.36 21.456 29.0266 21.8443L29.0976 21.2002C29.1346 20.8682 29.1542 20.5344 29.1563 20.2002C29.1552 18.9842 28.9064 17.7812 28.4253 16.6645C27.8135 15.2302 27.5358 13.6755 27.6134 12.1181L27.7196 9.95703C27.7256 9.83062 27.7313 9.71039 27.7313 9.60023C27.7284 7.71698 26.9786 5.91177 25.6463 4.58068C24.3141 3.24958 22.5083 2.5013 20.625 2.5C19.6625 2.50021 18.7101 2.69598 17.8255 3.07543C16.941 3.45489 16.1428 4.01012 15.4793 4.70742C14.8159 5.40472 14.301 6.22956 13.966 7.13187C13.631 8.03419 13.4828 8.99517 13.5305 9.95648L13.6367 12.1193C13.6434 12.2916 13.65 12.463 13.65 12.6375C13.6524 14.0224 13.3714 15.3931 12.8243 16.6653C12.2113 18.0925 11.9797 19.6545 12.1524 21.1982L12.2239 21.8405Z" fill="white"/>
<path d="M25.625 13.125V10.5328C22.9551 10.0602 20.4467 8.92459 18.33 7.23022C17.6755 8.45468 16.7504 9.51374 15.625 10.3269V13.125C15.625 14.4511 16.1518 15.7228 17.0894 16.6605C18.0271 17.5982 19.2989 18.125 20.625 18.125C21.9511 18.125 23.2228 17.5982 24.1605 16.6605C25.0982 15.7228 25.625 14.4511 25.625 13.125ZM17.8125 12.5C17.6271 12.5 17.4458 12.445 17.2916 12.342C17.1375 12.239 17.0173 12.0926 16.9463 11.9213C16.8754 11.7499 16.8568 11.5615 16.893 11.3796C16.9292 11.1977 17.0185 11.0307 17.1496 10.8996C17.2807 10.7685 17.4477 10.6792 17.6296 10.643C17.8114 10.6068 17.9999 10.6254 18.1712 10.6964C18.3425 10.7673 18.489 10.8875 18.592 11.0416C18.695 11.1958 18.75 11.3771 18.75 11.5625C18.7497 11.811 18.6509 12.0493 18.4751 12.2251C18.2993 12.4009 18.061 12.4997 17.8125 12.5ZM20.625 15.625C20.1279 15.6244 19.6513 15.4267 19.2998 15.0752C18.9483 14.7237 18.7505 14.2471 18.75 13.75H20C20 13.9158 20.0658 14.0747 20.183 14.1919C20.3002 14.3091 20.4592 14.375 20.625 14.375C20.7907 14.375 20.9497 14.3091 21.0669 14.1919C21.1841 14.0747 21.25 13.9158 21.25 13.75H22.5C22.4994 14.2471 22.3017 14.7237 21.9502 15.0752C21.5987 15.4267 21.1221 15.6244 20.625 15.625ZM23.4375 12.5C23.2521 12.5 23.0708 12.445 22.9166 12.342C22.7625 12.239 22.6423 12.0926 22.5713 11.9213C22.5004 11.7499 22.4818 11.5615 22.518 11.3796C22.5542 11.1977 22.6435 11.0307 22.7746 10.8996C22.9057 10.7685 23.0727 10.6792 23.2546 10.643C23.4364 10.6068 23.6249 10.6254 23.7962 10.6964C23.9675 10.7673 24.114 10.8875 24.217 11.0416C24.32 11.1958 24.375 11.3771 24.375 11.5625C24.3747 11.811 24.2759 12.0493 24.1001 12.2251C23.9243 12.4009 23.686 12.4997 23.4375 12.5ZM21.9585 25H19.2915L20.625 27.4448L21.9585 25ZM7.87201 21.4887C7.78618 21.5102 7.70627 21.5506 7.63817 21.6071C7.57007 21.6636 7.51552 21.7346 7.47855 21.815C7.44159 21.8953 7.42315 21.983 7.4246 22.0714C7.42605 22.1599 7.44735 22.2469 7.48693 22.326L8.05904 23.4704C8.10671 23.5657 8.12922 23.6716 8.12444 23.778C8.11967 23.8845 8.08775 23.9879 8.03173 24.0786C7.97572 24.1692 7.89746 24.244 7.80439 24.2959C7.71132 24.3478 7.60653 24.375 7.49998 24.375H5.26021C4.58113 24.3742 3.91147 24.2161 3.30373 23.9131L2.68084 23.6016C2.66195 23.5915 2.6407 23.5866 2.61931 23.5876C2.59791 23.5886 2.57718 23.5953 2.55927 23.607C2.54077 23.6178 2.52551 23.6334 2.51508 23.6522C2.50465 23.6709 2.49943 23.6921 2.49998 23.7135V25.4774C2.49959 25.5936 2.53175 25.7075 2.59281 25.8063C2.65387 25.9051 2.74139 25.9849 2.84545 26.0365L3.86271 26.5451C4.29682 26.7615 4.77515 26.8744 5.26021 26.875H9.37498V23.8704L8.56381 21.8424C8.51037 21.7101 8.41099 21.6014 8.28391 21.5365C8.15683 21.4715 8.01058 21.4546 7.87201 21.4887ZM23.75 34.4876L28.75 35.4876V28.0124L23.75 27.0124V34.4876ZM33.2876 36.6048L32.0029 36.8618L31.9986 36.8626H31.9976C31.9929 36.8635 31.9883 36.8638 31.9837 36.8647C31.9721 36.8667 31.9603 36.8687 31.9486 36.87C32.0617 37.0616 32.2227 37.2205 32.4158 37.331C32.6089 37.4415 32.8275 37.4997 33.05 37.5C33.1161 37.5006 33.1822 37.4954 33.2475 37.4844C33.4982 37.4415 33.731 37.3263 33.917 37.1527C33.6499 37.0487 33.4274 36.8549 33.2876 36.6047V36.6048ZM32.5 35.4876L33.125 35.3626V33.6673C33.1241 33.3265 33.2446 32.9965 33.4648 32.7365C33.6851 32.4764 33.9908 32.3033 34.3271 32.2482L36.4499 31.8944C36.817 31.8331 37.1935 31.9169 37.5 32.128V27.0124L32.5 28.0124V35.4876ZM32.5772 25.9333C32.314 25.9764 32.066 26.0853 31.8561 26.25C31.6463 26.4146 31.4814 26.6296 31.3769 26.875H31.8131L34.5604 26.3255L37.5 25.7376V25.1126L32.5772 25.9333Z" fill="white"/>
<path d="M36.8083 33.1698C36.7746 33.1411 36.7318 33.1252 36.6875 33.125C36.6767 33.125 36.6659 33.1259 36.6552 33.1277L34.5323 33.4815C34.4883 33.4888 34.4483 33.5115 34.4195 33.5456C34.3906 33.5797 34.3749 33.6229 34.375 33.6676V35.9906L36.875 35.5739H36.8755L36.875 33.3138C36.8752 33.2864 36.8693 33.2593 36.8577 33.2344C36.8462 33.2095 36.8293 33.1875 36.8083 33.1698ZM29.083 23.467L29.0715 23.4551C28.782 23.1527 28.4342 22.9122 28.0492 22.7481C27.6642 22.5839 27.2498 22.4995 26.8313 22.5H24.746L23.9902 23.8855L28.8783 24.7002C29.2797 24.7667 29.6622 24.9185 29.9999 25.1455L29.7314 24.4677C29.587 24.0927 29.3662 23.7519 29.083 23.467ZM28.6728 25.9333L23.75 25.1127V25.7377L26.5937 26.3065L29.4375 26.8752H29.8738C29.7692 26.6297 29.6042 26.4146 29.3943 26.2499C29.1843 26.0853 28.9361 25.9763 28.6728 25.9333ZM30 28.125H31.25V35.625H30V28.125Z" fill="white"/>
</svg>
