<svg width="24" height="24" viewBox="0 0 24 24" fill="none" xmlns="http://www.w3.org/2000/svg">
<g id="svgexport-20 2">
<g id="Group">
<path id="Vector" d="M4.69998 17.7C3.69998 16.6 3.09998 15.4 3.09998 13.4C3.09998 9.89995 5.59998 6.79995 9.09998 5.19995L9.99998 6.49995C6.69998 8.29995 5.99998 10.6 5.79998 12.1C6.29998 11.8 6.99998 11.7 7.69998 11.8C9.49998 12 10.9 13.4 10.9 15.3C10.9 16.2 10.5 17.1 9.89998 17.8C9.19998 18.5 8.39998 18.8 7.39998 18.8C6.29998 18.8 5.29998 18.3 4.69998 17.7ZM14.7 17.7C13.7 16.6 13.1 15.4 13.1 13.4C13.1 9.89995 15.6 6.79995 19.1 5.19995L20 6.49995C16.7 8.29995 16 10.6 15.8 12.1C16.3 11.8 17 11.7 17.7 11.8C19.5 12 20.9 13.4 20.9 15.3C20.9 16.2 20.5 17.1 19.9 17.8C19.3 18.5 18.4 18.8 17.4 18.8C16.3 18.8 15.3 18.3 14.7 17.7Z" fill="#245D51"/>
</g>
</g>
</svg>
