<svg width="24" height="24" viewBox="0 0 24 24" fill="none" xmlns="http://www.w3.org/2000/svg">
<g id="svgexport-20 1">
<g id="Group">
<path id="Vector" d="M19.3 17.7C20.3 16.6 20.9 15.4 20.9 13.4C20.9 9.89995 18.4 6.79995 14.9 5.19995L14 6.49995C17.3 8.29995 18 10.6 18.2 12.1C17.7 11.8 17 11.7 16.3 11.8C14.5 12 13.1 13.4 13.1 15.3C13.1 16.2 13.5 17.1 14.1 17.8C14.8 18.5 15.6 18.8 16.6 18.8C17.7 18.8 18.7 18.3 19.3 17.7ZM9.30002 17.7C10.3 16.6 10.9 15.4 10.9 13.4C10.9 9.89995 8.40002 6.79995 4.90002 5.19995L4.00002 6.49995C7.30002 8.29995 8.00002 10.6 8.20002 12.1C7.70002 11.8 7.00002 11.7 6.30002 11.8C4.50002 12 3.10003 13.4 3.10003 15.3C3.10003 16.2 3.50002 17.1 4.10003 17.8C4.70003 18.5 5.60003 18.8 6.60003 18.8C7.70003 18.8 8.70002 18.3 9.30002 17.7Z" fill="#245D51"/>
</g>
</g>
</svg>
